<?xml version="1.0" standalone="no"?>
<!DOCTYPE svg PUBLIC "-//W3C//DTD SVG 20010904//EN"
 "http://www.w3.org/TR/2001/REC-SVG-20010904/DTD/svg10.dtd">
<svg version="1.0" xmlns="http://www.w3.org/2000/svg"
 width="1076.000000pt" height="1076.000000pt" viewBox="0 0 1076.000000 1076.000000"
 preserveAspectRatio="xMidYMid meet">
<metadata>
Created by potrace 1.14, written by Peter Selinger 2001-2017
</metadata>
<g transform="translate(0.000000,1076.000000) scale(0.100000,-0.100000)"
fill="#000000" stroke="none">
<path d="M0 5376 l0 -2744 443 1 442 2 0 1685 c0 927 -4 1762 -8 1855 -4 94
-10 247 -13 340 -3 94 -7 196 -8 228 l-2 57 31 0 c29 0 39 -9 108 -107 42 -60
80 -112 84 -118 5 -5 24 -32 43 -60 19 -27 38 -54 42 -60 7 -8 69 -94 158
-220 12 -16 58 -82 103 -145 45 -63 90 -128 100 -143 10 -16 25 -36 32 -45 8
-9 54 -69 102 -133 48 -65 114 -150 145 -190 168 -216 224 -289 261 -339 23
-30 46 -60 51 -67 6 -6 22 -26 36 -44 14 -18 82 -107 153 -198 70 -91 133
-173 140 -181 7 -8 50 -64 97 -125 82 -108 135 -177 215 -279 22 -29 60 -79
85 -112 25 -32 47 -61 50 -64 4 -3 19 -23 35 -45 17 -22 32 -42 36 -45 3 -3
25 -32 49 -65 24 -33 46 -62 50 -65 3 -3 19 -23 35 -45 17 -22 32 -42 36 -45
3 -3 24 -30 46 -60 23 -30 61 -80 85 -111 23 -31 72 -94 108 -140 35 -46 112
-145 170 -220 58 -74 116 -150 130 -169 14 -18 52 -67 85 -110 33 -42 71 -91
85 -110 14 -18 45 -59 70 -91 70 -89 150 -193 158 -205 5 -8 148 -11 485 -12
l477 0 0 2744 0 2744 -444 0 -444 0 3 -1727 c2 -951 5 -1766 8 -1813 3 -47 8
-143 11 -215 7 -153 17 -384 19 -437 2 -37 2 -38 -34 -38 -29 0 -38 5 -50 28
-8 15 -16 29 -19 32 -17 17 -60 80 -60 88 0 6 -4 12 -8 14 -5 2 -52 66 -105
143 -53 77 -100 145 -104 150 -5 6 -42 59 -83 120 -41 60 -79 114 -83 120 -4
5 -67 94 -140 197 -120 171 -177 247 -412 553 -43 55 -130 170 -196 255 -65
85 -182 238 -260 340 -78 102 -165 217 -195 255 -29 39 -79 104 -111 145 -32
42 -97 128 -145 190 -196 256 -280 366 -303 395 -13 17 -50 66 -84 110 -33 44
-64 85 -68 90 -5 6 -51 66 -103 135 -52 69 -97 127 -101 130 -3 3 -32 41 -64
85 -33 44 -70 91 -82 105 -13 14 -23 28 -23 32 0 3 -6 13 -13 20 -7 7 -42 51
-77 98 -36 46 -70 91 -77 100 -7 8 -32 42 -57 75 -25 33 -53 69 -61 80 -9 11
-37 48 -63 82 l-47 62 -477 1 -478 0 0 -2744z"/>
<path d="M5808 8113 c-4 -7 -3 -5438 1 -5469 1 -9 444 -11 1704 -9 936 1 1722
5 1747 8 25 3 70 8 100 11 30 4 111 18 180 32 340 68 624 213 828 422 218 224
333 484 377 850 7 63 8 299 1 352 -3 25 -8 59 -10 75 -8 55 -16 94 -26 119 -5
15 -8 26 -5 26 6 0 -52 153 -82 216 -75 154 -235 340 -368 429 -33 22 -62 42
-65 45 -3 3 -23 15 -45 27 -22 11 -56 30 -75 40 -99 54 -351 140 -470 159 -14
2 -36 7 -48 10 -13 2 -43 7 -65 11 -118 16 -122 17 -125 46 -3 21 1 27 17 28
12 1 24 2 29 3 4 1 29 5 55 10 568 91 932 390 1052 862 32 127 40 207 38 379
-2 229 -49 436 -134 596 -10 20 -25 47 -32 60 -54 103 -180 244 -298 335 -52
40 -221 144 -234 144 -2 0 -28 11 -57 24 -73 33 -159 63 -253 87 -102 27 -113
29 -155 35 -19 2 -42 7 -50 9 -8 3 -38 7 -65 10 -28 4 -61 9 -75 13 -36 9
-3388 14 -3392 5z m3162 -797 c25 -4 63 -9 85 -12 129 -17 265 -67 359 -132
170 -118 253 -295 260 -556 8 -265 -54 -450 -194 -580 -90 -82 -246 -161 -357
-179 -16 -3 -39 -8 -53 -11 -14 -3 -41 -9 -60 -13 -19 -3 -551 -8 -1181 -10
l-1146 -4 2 753 c1 414 2 753 3 753 37 5 2252 -4 2282 -9z m170 -2238 c14 -4
39 -9 55 -12 72 -11 137 -26 153 -35 9 -5 19 -9 22 -8 26 3 171 -67 226 -108
71 -54 138 -133 181 -213 21 -40 63 -161 68 -200 3 -20 8 -57 12 -82 13 -85 4
-364 -12 -389 -2 -4 -7 -23 -10 -41 -17 -95 -87 -238 -152 -305 -85 -90 -173
-144 -303 -189 -73 -24 -96 -30 -170 -42 -19 -3 -46 -8 -60 -12 -14 -3 -574
-8 -1246 -9 l-1221 -4 0 831 0 831 1216 -4 c669 -1 1227 -6 1241 -9z"/>
</g>
</svg>
